<?xml version="1.0" encoding="utf-8"?>
<!-- Generator: Adobe Illustrator 21.1.0, SVG Export Plug-In . SVG Version: 6.00 Build 0)  -->
<svg version="1.1" id="Layer_1" xmlns="http://www.w3.org/2000/svg" xmlns:xlink="http://www.w3.org/1999/xlink" x="0px" y="0px"
	 viewBox="0 0 198.9 19.2" style="enable-background:new 0 0 198.9 19.2;" xml:space="preserve">
<style type="text/css">
	.st0{fill:#FFFFFF;}
</style>
<g>
	<path class="st0" d="M2.8,8.2h0.9c0.3,0,0.6,0,0.8-0.1C4.8,8,4.9,7.8,5.1,7.6l6-7c0.2-0.2,0.4-0.4,0.6-0.5C11.9,0,12.2,0,12.5,0
		h2.4l-7,8.1C7.7,8.3,7.5,8.5,7.3,8.6C7.2,8.8,7,8.9,6.8,9c0.5,0.2,0.9,0.5,1.3,1l7.3,9h-2.4c-0.2,0-0.3,0-0.5,0s-0.2-0.1-0.3-0.1
		c-0.1,0-0.2-0.1-0.3-0.2s-0.1-0.2-0.2-0.3L5.5,11c-0.1-0.1-0.2-0.2-0.3-0.3c-0.1-0.1-0.2-0.1-0.3-0.2s-0.2-0.1-0.4-0.1
		c-0.1,0-0.3,0-0.5,0H2.8V19H0V0h2.8V8.2z"/>
	<path class="st0" d="M31.5,16.7l0,2.3H19.7V0h11.8v2.3h-8.9v6h7.2v2.2h-7.2v6.2H31.5z"/>
	<path class="st0" d="M52.6,0v19h-1.4c-0.2,0-0.4,0-0.5-0.1c-0.1-0.1-0.3-0.2-0.4-0.4L39.5,4.6c0,0.2,0,0.5,0,0.7c0,0.2,0,0.4,0,0.6
		v13h-2.5V0h1.5c0.2,0,0.4,0,0.6,0.1s0.3,0.2,0.4,0.4l10.7,13.9c0-0.3,0-0.5-0.1-0.7c0-0.2,0-0.5,0-0.7V0H52.6z"/>
	<path class="st0" d="M75.9,9.5c0,1.4-0.2,2.7-0.7,3.9c-0.5,1.2-1.1,2.2-1.9,3c-0.8,0.8-1.8,1.5-3,1.9c-1.2,0.5-2.4,0.7-3.8,0.7
		h-7.1V0h7.1c1.4,0,2.7,0.2,3.8,0.7c1.2,0.5,2.1,1.1,3,1.9c0.8,0.8,1.5,1.8,1.9,3C75.7,6.8,75.9,8.1,75.9,9.5z M73,9.5
		c0-1.1-0.2-2.1-0.5-3c-0.3-0.9-0.7-1.7-1.3-2.3c-0.6-0.6-1.3-1.1-2.1-1.4c-0.8-0.3-1.7-0.5-2.7-0.5h-4.3v14.4h4.3
		c1,0,1.9-0.2,2.7-0.5c0.8-0.3,1.5-0.8,2.1-1.4c0.6-0.6,1-1.4,1.3-2.3C72.9,11.6,73,10.6,73,9.5z"/>
	<path class="st0" d="M95.7,19h-2.5c-0.5,0-0.9-0.2-1.1-0.6l-4.7-6.6c-0.1-0.2-0.3-0.4-0.5-0.5s-0.4-0.1-0.8-0.1h-1.8V19h-2.8V0H87
		c1.2,0,2.3,0.1,3.2,0.4C91,0.6,91.8,1,92.3,1.4c0.6,0.5,1,1,1.3,1.7C93.9,3.8,94,4.5,94,5.3c0,0.7-0.1,1.3-0.3,1.9
		c-0.2,0.6-0.5,1.1-0.9,1.6c-0.4,0.5-0.9,0.9-1.4,1.2s-1.2,0.6-1.9,0.8c0.4,0.2,0.7,0.5,0.9,0.9L95.7,19z M86.9,9.1
		c0.7,0,1.4-0.1,1.9-0.3s1-0.4,1.4-0.7C90.6,7.8,90.8,7.4,91,7c0.2-0.4,0.3-0.9,0.3-1.5c0-1.1-0.4-1.9-1.1-2.5
		c-0.7-0.6-1.8-0.8-3.2-0.8h-2.7v6.9H86.9z"/>
	<path class="st0" d="M115.9,19h-2.2c-0.2,0-0.4-0.1-0.6-0.2s-0.3-0.3-0.3-0.5l-1.7-4.4h-8.4l-1.7,4.4c-0.1,0.2-0.2,0.3-0.3,0.5
		c-0.2,0.1-0.4,0.2-0.6,0.2h-2.2l7.6-19h2.8L115.9,19z M110.3,11.9l-2.8-7.4c-0.2-0.5-0.4-1.1-0.6-1.9c-0.1,0.4-0.2,0.7-0.3,1.1
		c-0.1,0.3-0.2,0.6-0.3,0.9l-2.8,7.3H110.3z"/>
	<path class="st0" d="M134.1,9.9H128v6.5h-2.4V9.9h-6.1V7.6h6.1V1.2h2.4v6.4h6.1V9.9z"/>
	<path class="st0" d="M147.1,12.4c0,1.1-0.1,2-0.4,2.9c-0.3,0.8-0.6,1.6-1.2,2.1c-0.5,0.6-1.1,1-1.9,1.3c-0.8,0.3-1.6,0.5-2.6,0.5
		c-0.9,0-1.8-0.1-2.7-0.4l0.2-1.7c0-0.2,0.1-0.3,0.2-0.4c0.1-0.1,0.3-0.2,0.5-0.2c0.1,0,0.4,0,0.6,0.1s0.6,0.1,1,0.1
		c0.6,0,1.1-0.1,1.5-0.3s0.8-0.4,1.1-0.8c0.3-0.4,0.5-0.8,0.7-1.4c0.2-0.6,0.2-1.2,0.2-2V0h2.8V12.4z"/>
	<path class="st0" d="M156.5,19h-2.8V0h2.8V19z"/>
	<path class="st0" d="M178.9,19h-2.2c-0.2,0-0.4-0.1-0.6-0.2s-0.3-0.3-0.3-0.5l-1.7-4.4h-8.4l-1.7,4.4c-0.1,0.2-0.2,0.3-0.3,0.5
		c-0.2,0.1-0.4,0.2-0.6,0.2h-2.2l7.6-19h2.8L178.9,19z M173.3,11.9l-2.8-7.4c-0.2-0.5-0.4-1.1-0.6-1.9c-0.1,0.4-0.2,0.7-0.3,1.1
		c-0.1,0.3-0.2,0.6-0.3,0.9l-2.8,7.3H173.3z"/>
	<path class="st0" d="M198.9,0v19h-1.4c-0.2,0-0.4,0-0.5-0.1c-0.1-0.1-0.3-0.2-0.4-0.4L185.7,4.6c0,0.2,0,0.5,0,0.7
		c0,0.2,0,0.4,0,0.6v13h-2.5V0h1.5c0.2,0,0.4,0,0.6,0.1s0.3,0.2,0.4,0.4l10.7,13.9c0-0.3,0-0.5-0.1-0.7c0-0.2,0-0.5,0-0.7V0H198.9z"
		/>
</g>
</svg>
